<?xml version="1.0" encoding="UTF-8" standalone="no"?>
<svg style="enable-background:new 0 0 300 300;" viewBox="0 0 300 300" y="0px" x="0px" width="16" height="16">
   <path d="M 129.34077,12.828716 C 110.87018,104.45732 92.399599,196.08592 73.929012,287.71453 129.15969,287.53344 184.39037,287.35236 239.62105,287.17127 222.23697,195.54267 204.85288,103.91406 187.4688,12.285464 c -19.37601,0.181084 -38.75202,0.362168 -58.12803,0.543252 z" style="fill:none;fill-rule:evenodd;stroke:#000000;stroke-width:14;stroke-linecap:butt;stroke-linejoin:round;stroke-miterlimit:4;stroke-dasharray:none;stroke-opacity:1" />
   <path d="m 88.268112,221.68338 c 45.271048,0 90.542098,0 135.813148,0" style="fill:none;fill-rule:evenodd;stroke:#000000;stroke-width:14;stroke-linecap:butt;stroke-linejoin:miter;stroke-miterlimit:4;stroke-dasharray:none;stroke-opacity:1" />
   <path d="M 156.17468,220.89446 C 179.53454,161.49884 202.89441,102.10322 226.25427,42.707609" style="fill:none;fill-rule:evenodd;stroke:#000000;stroke-width:14;stroke-linecap:round;stroke-linejoin:miter;stroke-miterlimit:4;stroke-dasharray:none;stroke-opacity:1" />
   <path d="m 247.07083,38.460199 c 0.70608,14.47894 -17.77625,24.223682 -29.32486,15.468617 -12.35531,-7.593459 -9.95843,-28.347758 3.79126,-32.937093 11.76841,-4.991104 25.92745,4.663466 25.5336,17.468476 z" style="stroke-width:14;stroke-linecap:round;stroke-linejoin:round;stroke-miterlimit:4;stroke-dasharray:none" />
</svg>