<?xml version="1.0" encoding="UTF-8" standalone="no"?><!DOCTYPE svg PUBLIC "-//W3C//DTD SVG 1.1//EN" "http://www.w3.org/Graphics/SVG/1.1/DTD/svg11.dtd"><svg width="100%" height="100%" viewBox="0 0 16 16" version="1.1" xmlns="http://www.w3.org/2000/svg" xmlns:xlink="http://www.w3.org/1999/xlink" xml:space="preserve" xmlns:serif="http://www.serif.com/" style="fill-rule:evenodd;clip-rule:evenodd;stroke-linejoin:round;"><path d="M6.898,0.684c-0.985,4.887 -1.97,9.774 -2.955,14.661c2.946,-0.01 5.891,-0.02 8.837,-0.029c-0.927,-4.887 -1.855,-9.774 -2.782,-14.661c-1.033,0.01 -2.066,0.02 -3.1,0.029Z" style="fill:none;stroke:#fff;stroke-width:0.75px;"/><path d="M4.708,11.823c2.414,0 4.829,0 7.243,0" style="fill:none;stroke:#fff;stroke-width:0.75px;stroke-linejoin:miter;"/><path d="M8.329,11.781c1.246,-3.168 2.492,-6.335 3.738,-9.503" style="fill:none;stroke:#fff;stroke-width:0.75px;stroke-linecap:round;stroke-linejoin:miter;"/><path d="M13.177,2.051c0.038,0.772 -0.948,1.292 -1.564,0.825c-0.659,-0.405 -0.531,-1.512 0.202,-1.756c0.628,-0.267 1.383,0.248 1.362,0.931Z" style="fill:#fff;fill-rule:nonzero;"/></svg>